<svg width="6" height="9" viewBox="0 0.5 6 10" fill="none" xmlns="http://www.w3.org/2000/svg">
<path d="M5.36 7.592V9H1.056V7.592H2.528V1.96C2.44267 2.33333 2.304 2.62667 2.112 2.84C1.92 3.05333 1.71733 3.20267 1.504 3.288C1.29067 3.37333 1.09867 3.42667 0.928 3.448C0.757333 3.45867 0.645333 3.464 0.592 3.464V1.688C0.656 1.69867 0.794667 1.69867 1.008 1.688C1.22133 1.66667 1.45067 1.60267 1.696 1.496C1.952 1.38933 2.176 1.21867 2.368 0.983999C2.56 0.749333 2.66667 0.418667 2.688 -0.00800037H4.128V7.592H5.36Z" fill="#1C1C1C"/>
</svg>
