<svg width="8" height="10" viewBox="0 0.5 8 11" fill="none" xmlns="http://www.w3.org/2000/svg">
<path d="M0.672 10V8.64C0.682667 8.62933 0.778667 8.576 0.96 8.48C1.152 8.384 1.408 8.24533 1.728 8.064C2.048 7.88267 2.38933 7.66933 2.752 7.424C3.12533 7.17867 3.49333 6.912 3.856 6.624C4.22933 6.336 4.56533 6.032 4.864 5.712C5.16267 5.392 5.39733 5.06667 5.568 4.736C5.81333 4.23467 5.888 3.80267 5.792 3.44C5.70667 3.06667 5.50933 2.77867 5.2 2.576C4.89067 2.36267 4.52267 2.256 4.096 2.256C3.52 2.256 3.06133 2.448 2.72 2.832C2.37867 3.216 2.26133 3.808 2.368 4.608L0.848 4.4C0.773333 3.664 0.874667 3.03467 1.152 2.512C1.44 1.97867 1.856 1.57333 2.4 1.296C2.944 1.01867 3.568 0.879999 4.272 0.879999C4.848 0.879999 5.36533 0.986666 5.824 1.2C6.29333 1.41333 6.66667 1.70667 6.944 2.08C7.22133 2.45333 7.38133 2.88 7.424 3.36C7.46667 3.84 7.35467 4.352 7.088 4.896C6.88533 5.30133 6.60267 5.69067 6.24 6.064C5.888 6.42667 5.504 6.75733 5.088 7.056C4.68267 7.35467 4.28267 7.616 3.888 7.84C3.504 8.05333 3.168 8.22933 2.88 8.368C2.592 8.496 2.4 8.57067 2.304 8.592H7.584V10H0.672Z" fill="#1C1C1C"/>
</svg>
