<svg width="10" height="11" viewBox="0 0 10 11" fill="none" xmlns="http://www.w3.org/2000/svg">
<path d="M4.91368 10.2805C4.92272 10.2898 5.19982 10.3609 5.5294 10.4385C5.85903 10.516 6.13228 10.5677 6.13667 10.5533C6.14102 10.5388 6.17513 10.3046 6.21242 10.0327C6.28734 9.48669 6.46872 8.84922 6.66254 8.45054C7.26667 7.20803 8.35058 6.38532 9.66523 6.17149L10 6.11703L10 5.56815L10 5.01923L9.69658 4.9671C7.70866 4.62561 6.41264 3.10365 6.17019 0.826037C6.15437 0.67731 6.13546 0.555665 6.12818 0.555665C6.06113 0.555665 4.95022 0.829799 4.92921 0.851515C4.91402 0.867218 4.92532 1.00665 4.95436 1.1613C5.27582 2.87381 6.19627 4.26734 7.39071 4.85L7.67723 4.98977L4.73129 4.99524L1.78535 5.00071L9.70044e-07 5.00766L7.75817e-07 6.11851L1.79494 6.12546L7.67292 6.13645L7.3112 6.32411C6.3728 6.81091 5.62985 7.76582 5.19233 9.04756C5.06765 9.41271 4.87953 10.2452 4.91368 10.2805Z" fill="#1C1C1C"/>
</svg>
