<svg width="15" height="15" viewBox="0 0 15 15" fill="none" xmlns="http://www.w3.org/2000/svg">
<g clip-path="url(#clip0_1_14)">
<path d="M7.77865 14.5143C7.7913 14.5273 8.17924 14.6269 8.64066 14.7354C9.10213 14.844 9.48468 14.9163 9.49083 14.8961C9.49693 14.8759 9.54468 14.5479 9.59689 14.1673C9.70177 13.4029 9.95571 12.5105 10.227 11.9523C11.0728 10.2128 12.5903 9.06102 14.4308 8.76165L14.8995 8.6854L14.8995 7.91697L14.8995 7.14849L14.4747 7.07551C11.6916 6.59742 9.87719 4.46668 9.53777 1.27801C9.51562 1.0698 9.48913 0.899495 9.47894 0.899495C9.38507 0.899495 7.8298 1.28328 7.80039 1.31369C7.77912 1.33567 7.79494 1.53087 7.8356 1.74738C8.28565 4.1449 9.57427 6.09583 11.2465 6.91156L11.6476 7.10724L3.39899 7.12256L0.899496 7.13229L0.899496 8.68748L3.4124 8.69721L11.6416 8.71259L11.1352 8.97532C9.82141 9.65684 8.78128 10.9937 8.16876 12.7881C7.99421 13.2994 7.73084 14.4648 7.77865 14.5143Z" fill="#F5F5F5"/>
</g>
<defs>
<clipPath id="clip0_1_14">
<rect width="14" height="14" fill="white" transform="translate(0.899496 0.899494)"/>
</clipPath>
</defs>
</svg>
