<svg width="8" height="14" viewBox="0 0 8 14" fill="none" xmlns="http://www.w3.org/2000/svg">
<path d="M7.12125 0.38523C7.10859 0.372208 6.72065 0.272642 6.25924 0.164052C5.79776 0.0554618 5.41521 -0.0167903 5.40906 0.00337727C5.40297 0.0236054 5.35522 0.351556 5.30301 0.732197C5.19813 1.49657 4.94419 2.38903 4.67285 2.94718C3.82707 4.68668 2.30958 5.83848 0.469079 6.13784L0.0004 6.21409L0.000399933 6.98252L0.000399866 7.75101L0.425192 7.82399C3.20827 8.30208 5.0227 10.4328 5.36213 13.6215C5.38428 13.8297 5.41076 14 5.42096 14C5.51482 14 7.0701 13.6162 7.09951 13.5858C7.12078 13.5638 7.10496 13.3686 7.06429 13.1521C6.61425 10.7546 5.32563 8.80366 3.6534 7.98793L3.25228 7.79225L3.25843 6.40516L3.25831 6.1869L3.76473 5.92418C5.07848 5.24266 6.11861 3.90578 6.73114 2.11135C6.90569 1.60013 7.16906 0.434649 7.12125 0.38523Z" fill="#1C1C1C"/>
</svg>
