<svg width="14" height="9" viewBox="0 0 14 9" fill="none" xmlns="http://www.w3.org/2000/svg">
<path d="M0.38523 0.942473C0.372208 0.955129 0.272642 1.34307 0.164052 1.80448C0.0554618 2.26596 -0.0167903 2.64851 0.00337734 2.65466C0.0236055 2.66075 0.351556 2.7085 0.732197 2.76071C1.49657 2.86559 2.38903 3.11953 2.94718 3.39087C4.68668 4.23665 5.83848 5.75414 6.13784 7.59464L6.21409 8.06332L6.98252 8.06332L7.75101 8.06332L7.82399 7.63853C8.30208 4.85545 10.4328 3.04102 13.6215 2.70159C13.8297 2.67944 14 2.65296 14 2.64276C14 2.5489 13.6162 0.993623 13.5858 0.96421C13.5638 0.942941 13.3686 0.958762 13.1521 0.999425C10.7546 1.44947 8.80366 2.73809 7.98793 4.41032L7.79225 4.81144L6.40517 4.80529L6.1869 4.80541L5.92418 4.29899C5.24266 2.98524 3.90578 1.94511 2.11135 1.33258C1.60013 1.15803 0.434649 0.894662 0.38523 0.942473Z" fill="black"/>
</svg>
