<svg width="15" height="15" viewBox="0 0 15 15" fill="none" xmlns="http://www.w3.org/2000/svg">
<path d="M1 3.80566V12.8057C1 13.358 1.44771 13.8057 2 13.8057H8C8.55228 13.8057 9 13.358 9 12.8057V3.80566C9 2.70109 8.10457 1.80566 7 1.80566H3C1.89543 1.80566 1 2.70109 1 3.80566Z" stroke="#1C1C1C" stroke-linecap="round" stroke-linejoin="round"/>
<path d="M1 4.80566H9" stroke="#1C1C1C" stroke-linecap="round" stroke-linejoin="round"/>
<path d="M1 7.80566H9" stroke="#1C1C1C" stroke-linecap="round" stroke-linejoin="round"/>
<path d="M9 11.8057H12C13.1046 11.8057 14 10.9103 14 9.80566C14 8.70109 13.1046 7.80566 12 7.80566C11.4477 7.80566 11 7.35794 11 6.80566V4.30566L14 1.30566" stroke="#1C1C1C" stroke-linecap="round" stroke-linejoin="round"/>
<path d="M11 5.80566L13 5.30566V2.30566" stroke="#1C1C1C" stroke-linecap="round" stroke-linejoin="round"/>
<path d="M6.5 10.3057V11.3057" stroke="#1C1C1C" stroke-linecap="round" stroke-linejoin="round"/>
</svg>
