<svg width="69" height="22" viewBox="0 0 69 22" fill="none" xmlns="http://www.w3.org/2000/svg">
<path d="M3.93066 17.2866C4.83607 18.3218 6.3555 19.0034 8.08105 19.0034H26.9736L25.1221 20.8921C24.887 21.1311 24.5225 21.2709 24.1377 21.271H0V18.9204C0 18.4925 0.361516 18.1126 0.887695 17.9907L3.92773 17.2847L3.93066 17.2866ZM64.5869 4.25732C65.1366 4.88992 65.46 5.65192 65.46 6.47314V15.0698C65.4597 17.2412 63.2104 19.0005 60.4355 19.0005H26.9805L32.1416 13.7378C32.7677 14.0115 33.4915 14.1675 34.2588 14.1675C36.6544 14.1674 38.5977 12.6467 38.5977 10.772C38.5976 10.6134 38.5831 10.4569 38.5566 10.3052C38.6214 10.2801 45.8127 7.49878 50.7363 6.33838C55.9685 5.10535 64.5869 4.25732 64.5869 4.25732ZM36.3662 7.81396C35.7402 7.54258 35.02 7.38438 34.2559 7.37744C31.9808 7.35674 29.9349 8.89277 29.917 10.772L29.9199 10.7749C29.9199 10.9336 29.9316 11.0899 29.958 11.2417C29.958 11.2417 22.8762 14.0833 17.9072 15.2534C12.71 16.4772 3.9891 17.2812 3.93066 17.2866C3.381 16.654 3.05762 15.893 3.05762 15.0718V6.4751C3.05777 4.30369 5.30619 2.54447 8.08105 2.54443H41.5371L36.3662 7.81396ZM68.5137 0.270996V2.62256C68.5135 3.05029 68.152 3.42938 67.626 3.55127L64.5869 4.25732C63.6815 3.22222 62.161 2.5415 60.4355 2.5415H41.5371L43.3887 0.652832C43.6238 0.413599 43.9889 0.273926 44.374 0.273926H67.2705L67.2734 0.270996H68.5137Z" fill="black"/>
</svg>
