<svg width="25" height="25" viewBox="0 0 25 25" fill="none" xmlns="http://www.w3.org/2000/svg">
<path d="M0.385229 17.2866C0.372208 17.2993 0.272642 17.6872 0.164052 18.1486C0.0554615 18.6101 -0.0167906 18.9927 0.00337704 18.9988C0.0236052 19.0049 0.351556 19.0527 0.732197 19.1049C1.49657 19.2097 2.38903 19.4637 2.94718 19.735C4.68668 20.5808 5.83848 22.0983 6.13784 23.9388L6.21409 24.4075L6.98252 24.4075L7.75101 24.4075L7.82399 23.9827C8.30207 21.1996 10.4328 19.3852 13.6215 19.0457C13.8297 19.0236 14 18.9971 14 18.9869C14 18.893 13.6162 17.3378 13.5858 17.3084C13.5638 17.2871 13.3686 17.3029 13.1521 17.3436C10.7546 17.7936 8.80366 19.0822 7.98793 20.7545L7.79225 21.1556L7.78459 17.0313L7.77693 12.907L7.7672 10.4075L6.21202 10.4075L6.20228 12.9204L6.1869 21.1496L5.92418 20.6431C5.24266 19.3294 3.90578 18.2893 2.11135 17.6767C1.60013 17.5022 0.434649 17.2388 0.385229 17.2866Z" fill="#F1F1F1"/>
<path d="M24.5806 7.50342C24.5936 7.49076 24.6932 7.10282 24.8018 6.64141C24.9104 6.17993 24.9826 5.79738 24.9624 5.79123C24.9422 5.78514 24.6143 5.73738 24.2336 5.68518C23.4693 5.5803 22.5768 5.32636 22.0186 5.05502C20.2791 4.20924 19.1273 2.69175 18.828 0.851248L18.7517 0.382569L17.9833 0.382569L17.2148 0.382569L17.1418 0.807361C16.6637 3.59044 14.533 5.40487 11.3443 5.7443C11.1361 5.76645 10.9658 5.79293 10.9658 5.80313C10.9658 5.89699 11.3496 7.45227 11.38 7.48168C11.402 7.50295 11.5972 7.48713 11.8137 7.44646C14.2112 6.99642 16.1622 5.7078 16.9779 4.03557L17.1736 3.63445L17.1889 11.8831L17.1986 14.3826L18.7538 14.3826L18.7635 11.8697L18.7789 3.64048L19.0416 4.14689C19.7232 5.46065 21.06 6.50078 22.8545 7.11331C23.3657 7.28785 24.5312 7.55123 24.5806 7.50342Z" fill="#F1F1F1"/>
</svg>
