<svg width="14" height="14" viewBox="0 0 14 14" fill="none" xmlns="http://www.w3.org/2000/svg">
<g clip-path="url(#clip0_3400_883)">
<path d="M5.22919 2.25L5.65919 1.14C5.73171 0.952064 5.8593 0.790411 6.02524 0.676212C6.19119 0.562014 6.38775 0.500595 6.58919 0.5H7.40919C7.61063 0.500595 7.8072 0.562014 7.97314 0.676212C8.13909 0.790411 8.26667 0.952064 8.33919 1.14L8.76919 2.25L10.2291 3.09L11.4091 2.91C11.6056 2.88333 11.8056 2.91567 11.9837 3.00292C12.1617 3.09017 12.3098 3.22838 12.4091 3.4L12.8091 4.1C12.9116 4.27435 12.9589 4.47568 12.9446 4.67742C12.9303 4.87916 12.8552 5.07183 12.7291 5.23L11.9991 6.16V7.84L12.7491 8.77C12.8752 8.92817 12.9503 9.12084 12.9646 9.32258C12.9789 9.52432 12.9316 9.72565 12.8291 9.9L12.4291 10.6C12.3298 10.7716 12.1817 10.9098 12.0037 10.9971C11.8256 11.0843 11.6256 11.1167 11.4291 11.09L10.2491 10.91L8.78919 11.75L8.35919 12.86C8.28667 13.0479 8.15909 13.2096 7.99314 13.3238C7.8272 13.438 7.63063 13.4994 7.42919 13.5H6.58919C6.38775 13.4994 6.19119 13.438 6.02524 13.3238C5.8593 13.2096 5.73171 13.0479 5.65919 12.86L5.22919 11.75L3.76919 10.91L2.58919 11.09C2.39271 11.1167 2.19273 11.0843 2.01467 10.9971C1.83662 10.9098 1.68852 10.7716 1.58919 10.6L1.18919 9.9C1.08669 9.72565 1.03947 9.52432 1.05375 9.32258C1.06803 9.12084 1.14315 8.92817 1.26919 8.77L1.99919 7.84V6.16L1.24919 5.23C1.12315 5.07183 1.04803 4.87916 1.03375 4.67742C1.01947 4.47568 1.06669 4.27435 1.16919 4.1L1.56919 3.4C1.66852 3.22838 1.81662 3.09017 1.99467 3.00292C2.17273 2.91567 2.37271 2.88333 2.56919 2.91L3.74919 3.09L5.22919 2.25ZM4.99919 7C4.99919 7.39556 5.11649 7.78224 5.33625 8.11114C5.55602 8.44004 5.86837 8.69638 6.23382 8.84776C6.59928 8.99913 7.00141 9.03874 7.38937 8.96157C7.77733 8.8844 8.1337 8.69392 8.41341 8.41421C8.69311 8.13451 8.88359 7.77814 8.96076 7.39018C9.03793 7.00222 8.99833 6.60009 8.84695 6.23463C8.69558 5.86918 8.43923 5.55682 8.11033 5.33706C7.78143 5.1173 7.39475 5 6.99919 5C6.46876 5 5.96005 5.21071 5.58498 5.58579C5.20991 5.96086 4.99919 6.46957 4.99919 7Z" stroke="black" stroke-linecap="round" stroke-linejoin="round"/>
</g>
<defs>
<clipPath id="clip0_3400_883">
<rect width="14" height="14" fill="white"/>
</clipPath>
</defs>
</svg>
