<svg width="34" height="34" viewBox="0 0 34 34" fill="none" xmlns="http://www.w3.org/2000/svg">
<path d="M17 1V3.46154" stroke="#1C1C1C" stroke-width="2" stroke-linecap="round" stroke-linejoin="round"/>
<path d="M24.3008 3.46124L25.5176 2.23047" stroke="#1C1C1C" stroke-width="2" stroke-linecap="round" stroke-linejoin="round"/>
<path d="M9.69924 3.46124L8.48242 2.23047" stroke="#1C1C1C" stroke-width="2" stroke-linecap="round" stroke-linejoin="round"/>
<path d="M32.8183 32.9998H27.1063C22.0715 32.9998 17.8675 29.1167 17.4117 24.0451L17.1315 20.9283C17.051 20.0327 17.4886 19.1705 18.2549 18.7145C19.6443 17.8878 21.4215 18.7274 21.6866 20.3357L22.3537 24.3844" stroke="#1C1C1C" stroke-width="2" stroke-linecap="round" stroke-linejoin="round"/>
<path d="M32.8186 24.376H28.8651C27.6454 24.376 26.614 23.4627 26.4529 22.2398L24.9229 10.6324C24.6445 8.52029 22.2216 7.49178 20.5363 8.77026C19.8421 9.29683 19.4336 10.1233 19.4336 11.0009V18.2221" stroke="#1C1C1C" stroke-width="2" stroke-linecap="round" stroke-linejoin="round"/>
<path d="M1.18066 32.9998H6.89275C11.9275 32.9998 16.1315 29.1167 16.5873 24.0451L16.8674 20.9283C16.948 20.0327 16.5104 19.1705 15.7441 18.7145C14.3546 17.8878 12.5774 18.7274 12.3124 20.3357L11.6453 24.3844" stroke="#1C1C1C" stroke-width="2" stroke-linecap="round" stroke-linejoin="round"/>
<path d="M1.18066 24.375H5.13406C6.3538 24.375 7.38515 23.4617 7.54635 22.2388L9.07645 10.6314C9.35489 8.51931 11.7777 7.4908 13.463 8.76928C14.1571 9.29585 14.5657 10.1223 14.5657 10.9999V18.2212" stroke="#1C1C1C" stroke-width="2" stroke-linecap="round" stroke-linejoin="round"/>
</svg>
